<svg
  fill="none"
  height="46"
  viewBox="0 0 48 46"
  width="48"
  xmlns="http://www.w3.org/2000/svg"
>
  <path
    d="M25.946 44.938c-.664.845-2.021.375-2.021-.698V33.937a2.26 2.26 0 0 0-2.262-2.262H10.287c-.92 0-1.456-1.04-.92-1.788l7.48-10.471c1.07-1.497 0-3.578-1.842-3.578H1.237c-.92 0-1.456-1.04-.92-1.788L10.013.474c.214-.297.556-.474.92-.474h28.894c.92 0 1.456 1.04.92 1.788l-7.48 10.471c-1.07 1.498 0 3.579 1.842 3.579h11.377c.943 0 1.473 1.088.89 1.83L25.947 44.94z"
    fill="#863bff"
    style="fill:#863bff;fill:color(display-p3 .5252 .23 1);fill-opacity:1"
  />
  <mask
    height="46"
    id="a"
    maskUnits="userSpaceOnUse"
    style="mask-type:alpha"
    width="48"
    x="0"
    y="0"
  >
    <path
      d="M25.842 44.938c-.664.844-2.021.375-2.021-.698V33.937a2.26 2.26 0 0 0-2.262-2.262H10.183c-.92 0-1.456-1.04-.92-1.788l7.48-10.471c1.07-1.498 0-3.579-1.842-3.579H1.133c-.92 0-1.456-1.04-.92-1.787L9.91.473c.214-.297.556-.474.92-.474h28.894c.92 0 1.456 1.04.92 1.788l-7.48 10.471c-1.07 1.498 0 3.578 1.842 3.578h11.377c.943 0 1.473 1.088.89 1.832L25.843 44.94z"
      fill="#000"
      style="fill:#000;fill-opacity:1"
    />
  </mask>
  <g mask="url(#a)">
    <g filter="url(#b)">
      <ellipse
        cx="5.508"
        cy="14.704"
        fill="#ede6ff"
        rx="5.508"
        ry="14.704"
        style="fill:#ede6ff;fill:color(display-p3 .9275 .9033 1);fill-opacity:1"
        transform="matrix(.00324 1 1 -.00324 -4.47 31.516)"
      />
    </g>
    <g filter="url(#c)">
      <ellipse
        cx="10.399"
        cy="29.851"
        fill="#ede6ff"
        rx="10.399"
        ry="29.851"
        style="fill:#ede6ff;fill:color(display-p3 .9275 .9033 1);fill-opacity:1"
        transform="matrix(.00324 1 1 -.00324 -39.328 7.883)"
      />
    </g>
    <g filter="url(#d)">
      <ellipse
        cx="5.508"
        cy="30.487"
        fill="#7e14ff"
        rx="5.508"
        ry="30.487"
        style="fill:#7e14ff;fill:color(display-p3 .4922 .0767 1);fill-opacity:1"
        transform="rotate(89.814 -25.913 -14.639)scale(1 -1)"
      />
    </g>
    <g filter="url(#e)">
      <ellipse
        cx="5.508"
        cy="30.599"
        fill="#7e14ff"
        rx="5.508"
        ry="30.599"
        style="fill:#7e14ff;fill:color(display-p3 .4922 .0767 1);fill-opacity:1"
        transform="rotate(89.814 -32.644 -3.334)scale(1 -1)"
      />
    </g>
    <g filter="url(#f)">
      <ellipse
        cx="5.508"
        cy="30.599"
        fill="#7e14ff"
        rx="5.508"
        ry="30.599"
        style="fill:#7e14ff;fill:color(display-p3 .4922 .0767 1);fill-opacity:1"
        transform="matrix(.00324 1 1 -.00324 -34.34 30.47)"
      />
    </g>
    <g filter="url(#g)">
      <ellipse
        cx="14.072"
        cy="22.078"
        fill="#ede6ff"
        rx="14.072"
        ry="22.078"
        style="fill:#ede6ff;fill:color(display-p3 .9275 .9033 1);fill-opacity:1"
        transform="rotate(93.35 24.506 48.493)scale(-1 1)"
      />
    </g>
    <g filter="url(#h)">
      <ellipse
        cx="3.47"
        cy="21.501"
        fill="#7e14ff"
        rx="3.47"
        ry="21.501"
        style="fill:#7e14ff;fill:color(display-p3 .4922 .0767 1);fill-opacity:1"
        transform="rotate(89.009 28.708 47.59)scale(-1 1)"
      />
    </g>
    <g filter="url(#i)">
      <ellipse
        cx="3.47"
        cy="21.501"
        fill="#7e14ff"
        rx="3.47"
        ry="21.501"
        style="fill:#7e14ff;fill:color(display-p3 .4922 .0767 1);fill-opacity:1"
        transform="rotate(89.009 28.708 47.59)scale(-1 1)"
      />
    </g>
    <g filter="url(#j)">
      <ellipse
        cx=".387"
        cy="8.972"
        fill="#7e14ff"
        rx="4.407"
        ry="29.108"
        style="fill:#7e14ff;fill:color(display-p3 .4922 .0767 1);fill-opacity:1"
        transform="rotate(39.51 .387 8.972)"
      />
    </g>
    <g filter="url(#k)">
      <ellipse
        cx="47.523"
        cy="-6.092"
        fill="#7e14ff"
        rx="4.407"
        ry="29.108"
        style="fill:#7e14ff;fill:color(display-p3 .4922 .0767 1);fill-opacity:1"
        transform="rotate(37.892 47.523 -6.092)"
      />
    </g>
    <g filter="url(#l)">
      <ellipse
        cx="41.412"
        cy="6.333"
        fill="#47bfff"
        rx="5.971"
        ry="9.665"
        style="fill:#47bfff;fill:color(display-p3 .2799 .748 1);fill-opacity:1"
        transform="rotate(37.892 41.412 6.333)"
      />
    </g>
    <g filter="url(#m)">
      <ellipse
        cx="-1.879"
        cy="38.332"
        fill="#7e14ff"
        rx="4.407"
        ry="29.108"
        style="fill:#7e14ff;fill:color(display-p3 .4922 .0767 1);fill-opacity:1"
        transform="rotate(37.892 -1.88 38.332)"
      />
    </g>
    <g filter="url(#n)">
      <ellipse
        cx="-1.879"
        cy="38.332"
        fill="#7e14ff"
        rx="4.407"
        ry="29.108"
        style="fill:#7e14ff;fill:color(display-p3 .4922 .0767 1);fill-opacity:1"
        transform="rotate(37.892 -1.88 38.332)"
      />
    </g>
    <g filter="url(#o)">
      <ellipse
        cx="35.651"
        cy="29.907"
        fill="#7e14ff"
        rx="4.407"
        ry="29.108"
        style="fill:#7e14ff;fill:color(display-p3 .4922 .0767 1);fill-opacity:1"
        transform="rotate(37.892 35.651 29.907)"
      />
    </g>
    <g filter="url(#p)">
      <ellipse
        cx="38.418"
        cy="32.4"
        fill="#47bfff"
        rx="5.971"
        ry="15.297"
        style="fill:#47bfff;fill:color(display-p3 .2799 .748 1);fill-opacity:1"
        transform="rotate(37.892 38.418 32.4)"
      />
    </g>
  </g>
  <defs>
    <filter
      color-interpolation-filters="sRGB"
      filterUnits="userSpaceOnUse"
      height="41.654"
      id="b"
      width="60.045"
      x="-19.77"
      y="16.149"
    >
      <feFlood flood-opacity="0" result="BackgroundImageFix" />
      <feBlend in="SourceGraphic" in2="BackgroundImageFix" result="shape" />
      <feGaussianBlur
        result="effect1_foregroundBlur_2002_17158"
        stdDeviation="7.659"
      />
    </filter>
    <filter
      color-interpolation-filters="sRGB"
      filterUnits="userSpaceOnUse"
      height="51.437"
      id="c"
      width="90.34"
      x="-54.613"
      y="-7.533"
    >
      <feFlood flood-opacity="0" result="BackgroundImageFix" />
      <feBlend in="SourceGraphic" in2="BackgroundImageFix" result="shape" />
      <feGaussianBlur
        result="effect1_foregroundBlur_2002_17158"
        stdDeviation="7.659"
      />
    </filter>
    <filter
      color-interpolation-filters="sRGB"
      filterUnits="userSpaceOnUse"
      height="29.4"
      id="d"
      width="79.355"
      x="-49.64"
      y="2.03"
    >
      <feFlood flood-opacity="0" result="BackgroundImageFix" />
      <feBlend in="SourceGraphic" in2="BackgroundImageFix" result="shape" />
      <feGaussianBlur
        result="effect1_foregroundBlur_2002_17158"
        stdDeviation="4.596"
      />
    </filter>
    <filter
      color-interpolation-filters="sRGB"
      filterUnits="userSpaceOnUse"
      height="29.4"
      id="e"
      width="79.579"
      x="-45.045"
      y="20.029"
    >
      <feFlood flood-opacity="0" result="BackgroundImageFix" />
      <feBlend in="SourceGraphic" in2="BackgroundImageFix" result="shape" />
      <feGaussianBlur
        result="effect1_foregroundBlur_2002_17158"
        stdDeviation="4.596"
      />
    </filter>
    <filter
      color-interpolation-filters="sRGB"
      filterUnits="userSpaceOnUse"
      height="29.4"
      id="f"
      width="79.579"
      x="-43.513"
      y="21.178"
    >
      <feFlood flood-opacity="0" result="BackgroundImageFix" />
      <feBlend in="SourceGraphic" in2="BackgroundImageFix" result="shape" />
      <feGaussianBlur
        result="effect1_foregroundBlur_2002_17158"
        stdDeviation="4.596"
      />
    </filter>
    <filter
      color-interpolation-filters="sRGB"
      filterUnits="userSpaceOnUse"
      height="58.852"
      id="g"
      width="74.749"
      x="15.756"
      y="-17.901"
    >
      <feFlood flood-opacity="0" result="BackgroundImageFix" />
      <feBlend in="SourceGraphic" in2="BackgroundImageFix" result="shape" />
      <feGaussianBlur
        result="effect1_foregroundBlur_2002_17158"
        stdDeviation="7.659"
      />
    </filter>
    <filter
      color-interpolation-filters="sRGB"
      filterUnits="userSpaceOnUse"
      height="25.362"
      id="h"
      width="61.377"
      x="23.548"
      y="2.284"
    >
      <feFlood flood-opacity="0" result="BackgroundImageFix" />
      <feBlend in="SourceGraphic" in2="BackgroundImageFix" result="shape" />
      <feGaussianBlur
        result="effect1_foregroundBlur_2002_17158"
        stdDeviation="4.596"
      />
    </filter>
    <filter
      color-interpolation-filters="sRGB"
      filterUnits="userSpaceOnUse"
      height="25.362"
      id="i"
      width="61.377"
      x="23.548"
      y="2.284"
    >
      <feFlood flood-opacity="0" result="BackgroundImageFix" />
      <feBlend in="SourceGraphic" in2="BackgroundImageFix" result="shape" />
      <feGaussianBlur
        result="effect1_foregroundBlur_2002_17158"
        stdDeviation="4.596"
      />
    </filter>
    <filter
      color-interpolation-filters="sRGB"
      filterUnits="userSpaceOnUse"
      height="63.649"
      id="j"
      width="56.045"
      x="-27.636"
      y="-22.853"
    >
      <feFlood flood-opacity="0" result="BackgroundImageFix" />
      <feBlend in="SourceGraphic" in2="BackgroundImageFix" result="shape" />
      <feGaussianBlur
        result="effect1_foregroundBlur_2002_17158"
        stdDeviation="4.596"
      />
    </filter>
    <filter
      color-interpolation-filters="sRGB"
      filterUnits="userSpaceOnUse"
      height="64.646"
      id="k"
      width="54.814"
      x="20.116"
      y="-38.415"
    >
      <feFlood flood-opacity="0" result="BackgroundImageFix" />
      <feBlend in="SourceGraphic" in2="BackgroundImageFix" result="shape" />
      <feGaussianBlur
        result="effect1_foregroundBlur_2002_17158"
        stdDeviation="4.596"
      />
    </filter>
    <filter
      color-interpolation-filters="sRGB"
      filterUnits="userSpaceOnUse"
      height="35.313"
      id="l"
      width="33.541"
      x="24.641"
      y="-11.323"
    >
      <feFlood flood-opacity="0" result="BackgroundImageFix" />
      <feBlend in="SourceGraphic" in2="BackgroundImageFix" result="shape" />
      <feGaussianBlur
        result="effect1_foregroundBlur_2002_17158"
        stdDeviation="4.596"
      />
    </filter>
    <filter
      color-interpolation-filters="sRGB"
      filterUnits="userSpaceOnUse"
      height="64.646"
      id="m"
      width="54.814"
      x="-29.286"
      y="6.009"
    >
      <feFlood flood-opacity="0" result="BackgroundImageFix" />
      <feBlend in="SourceGraphic" in2="BackgroundImageFix" result="shape" />
      <feGaussianBlur
        result="effect1_foregroundBlur_2002_17158"
        stdDeviation="4.596"
      />
    </filter>
    <filter
      color-interpolation-filters="sRGB"
      filterUnits="userSpaceOnUse"
      height="64.646"
      id="n"
      width="54.814"
      x="-29.286"
      y="6.009"
    >
      <feFlood flood-opacity="0" result="BackgroundImageFix" />
      <feBlend in="SourceGraphic" in2="BackgroundImageFix" result="shape" />
      <feGaussianBlur
        result="effect1_foregroundBlur_2002_17158"
        stdDeviation="4.596"
      />
    </filter>
    <filter
      color-interpolation-filters="sRGB"
      filterUnits="userSpaceOnUse"
      height="64.646"
      id="o"
      width="54.814"
      x="8.244"
      y="-2.416"
    >
      <feFlood flood-opacity="0" result="BackgroundImageFix" />
      <feBlend in="SourceGraphic" in2="BackgroundImageFix" result="shape" />
      <feGaussianBlur
        result="effect1_foregroundBlur_2002_17158"
        stdDeviation="4.596"
      />
    </filter>
    <filter
      color-interpolation-filters="sRGB"
      filterUnits="userSpaceOnUse"
      height="43.623"
      id="p"
      width="39.409"
      x="18.713"
      y="10.588"
    >
      <feFlood flood-opacity="0" result="BackgroundImageFix" />
      <feBlend in="SourceGraphic" in2="BackgroundImageFix" result="shape" />
      <feGaussianBlur
        result="effect1_foregroundBlur_2002_17158"
        stdDeviation="4.596"
      />
    </filter>
  </defs>
</svg>
